<?xml version="1.0" encoding="UTF-8"?>
<svg width="642px" height="307px" viewBox="0 0 642 307" version="1.1" xmlns="http://www.w3.org/2000/svg" xmlns:xlink="http://www.w3.org/1999/xlink">
    <!-- Generator: Sketch 43.1 (39012) - http://www.bohemiancoding.com/sketch -->
    <title>Group</title>
    <desc>Created with Sketch.</desc>
    <defs></defs>
    <g id="Page-1" stroke="none" stroke-width="1" fill="none" fill-rule="evenodd">
        <g id="Group" transform="translate(1.000000, 1.000000)">
            <g id="octopus">
                <path d="M20.6867953,104.058811 C20.9244111,103.704876 21.1638667,103.351936 21.4051512,103 C21.4207011,103.022681 21.4362585,103.045358 21.4518236,103.06803 C21.5380587,102.959507 21.6249356,102.851204 21.7124534,102.743129 C31.883894,90.1824455 46.8617878,85.4517188 55.1665156,92.1767547 C63.4712433,98.9017907 61.9579736,114.535955 51.786533,127.096638 C50.4663034,128.726986 49.0650974,130.225419 47.6080181,131.584008 C47.6599892,131.627291 47.7119953,131.670543 47.7640364,131.713766 C42.1114628,143.54707 39,156.474762 39,170.015625 C39,226.633441 93.3974029,272.53125 160.5,272.53125 C227.602597,272.53125 282,226.633441 282,170.015625 C282,156.247172 278.783065,143.112675 272.948782,131.118034 C282.883918,122.762925 291.524571,113.312652 298.594849,103 C312.208457,122.856702 320,145.910618 320,170.5 C320,245.058441 248.36556,305.5 160,305.5 C71.63444,305.5 0,245.058441 0,170.5 C0,148.682262 6.13405523,128.073352 17.0264227,109.834053 C18.0552009,107.876808 19.2765621,105.938947 20.6867953,104.058811 Z" id="large-left-tentacle" stroke="#4A148C" fill="#7B1FA2"></path>
                <path d="M340.686795,103.941721 C340.924411,103.587786 341.163867,103.234846 341.405151,102.88291 C341.420701,102.905591 341.436259,102.928268 341.451824,102.95094 C341.538059,102.842417 341.624936,102.734114 341.712453,102.626039 C351.883894,90.0653556 366.861788,85.334629 375.166516,92.0596649 C383.471243,98.7847008 381.957974,114.418865 371.786533,126.979548 C370.466303,128.609896 369.065097,130.108329 367.608018,131.466918 C367.659989,131.510201 367.711995,131.553453 367.764036,131.596676 C362.111463,143.429981 359,156.357672 359,169.898535 C359,226.516351 413.397403,272.41416 480.5,272.41416 C547.602597,272.41416 602,226.516351 602,169.898535 C602,156.130082 598.783065,142.995585 592.948782,131.000944 C602.883918,122.645835 611.524571,113.195562 618.594849,102.88291 C632.208457,122.739612 640,145.793528 640,170.38291 C640,244.941351 568.36556,305.38291 480,305.38291 C391.63444,305.38291 320,244.941351 320,170.38291 C320,148.565172 326.134055,127.956262 337.026423,109.716964 C338.055201,107.759718 339.276562,105.821857 340.686795,103.941721 Z" id="large-right-tentacle" stroke="#4A148C" fill="#7B1FA2" transform="translate(480.000000, 197.191455) scale(-1, 1) translate(-480.000000, -197.191455) "></path>
                <path d="M280.427388,182.459214 C280.805343,185.51068 281,188.618969 281,191.772723 C281,233.194079 247.421356,266.772723 206,266.772723 C164.578644,266.772723 131,233.194079 131,191.772723 C131,182.968763 132.516948,174.519104 135.303728,166.670864 C135.190047,166.579189 135.076552,166.487304 134.963238,166.395204 C136.449195,163.828817 137.658555,160.943984 138.496074,157.818321 C142.258535,143.776625 137.091878,130.191913 126.956022,127.476018 C120.425166,125.726081 113.424777,128.915458 108.26483,135.161744 C108.189666,135.032232 108.114752,134.902559 108.040086,134.772723 C107.527314,135.664383 107.026305,136.563666 106.537273,137.470362 C104.830143,139.989521 103.401506,142.88316 102.362128,146.061015 C96.339416,159.914208 93,175.203484 93,191.272723 C93,253.957042 143.815681,304.772723 206.5,304.772723 C264.665595,304.772723 312.612024,261.019276 319.222393,204.629279 C319.645198,204.63943 320.071053,204.644531 320.5,204.644531 C320.584407,204.644531 320.668702,204.644334 320.752885,204.643939 C327.267505,261.136534 375.261322,305 433.5,305 C496.184319,305 547,254.184319 547,191.5 C547,175.430761 543.660584,160.141485 537.637872,146.288292 C536.598494,143.110437 535.169857,140.216798 533.462727,137.697639 C532.973695,136.790943 532.472686,135.89166 531.959914,135 C531.885248,135.129836 531.810334,135.259509 531.73517,135.389021 C526.575223,129.142735 519.574834,125.953358 513.043978,127.703295 C502.908122,130.41919 497.741465,144.003902 501.503926,158.045598 C502.341445,161.171261 503.550805,164.056094 505.036762,166.622481 C504.923448,166.714581 504.809953,166.806466 504.696278,166.898137 C507.483052,174.746381 509,183.19604 509,192 C509,233.421356 475.421356,267 434,267 C392.578644,267 359,233.421356 359,192 C359,189.569097 359.115651,187.165206 359.341751,184.793529 C374.818724,165.855773 384.848019,135.865524 397,106 C417,56.8466573 362.749783,-2.84217094e-14 320.5,-2.84217094e-14 C278.250217,-2.84217094e-14 222,56.8466573 244,106 C256.830367,134.666155 266.344632,163.447218 280.427388,182.459214 Z" id="Combined-Shape" stroke="#4A148C" fill="#7B1FA2"></path>
                <ellipse id="Oval-5" stroke="#4A148C" fill="#FFFFFF" cx="285" cy="89" rx="15" ry="25"></ellipse>
                <ellipse id="Oval-5" stroke="#4A148C" fill="#FFFFFF" cx="355" cy="89" rx="15" ry="25"></ellipse>
                <ellipse id="Oval-5" stroke="#000000" fill="#000000" cx="355.5" cy="89.5" rx="10.5" ry="17.5"></ellipse>
                <ellipse id="Oval-5" stroke="#000000" fill="#000000" cx="285.5" cy="89.5" rx="10.5" ry="17.5"></ellipse>
                <ellipse id="Oval-6" stroke="#FFFFFF" fill="#FFFFFF" transform="translate(281.448205, 83.947043) rotate(13.000000) translate(-281.448205, -83.947043) " cx="281.448205" cy="83.9470429" rx="2.5" ry="4.5"></ellipse>
                <ellipse id="Oval-6" stroke="#FFFFFF" fill="#FFFFFF" transform="translate(351.448205, 83.947043) rotate(13.000000) translate(-351.448205, -83.947043) " cx="351.448205" cy="83.9470429" rx="2.5" ry="4.5"></ellipse>
            </g>
            <g id="values" transform="translate(18.000000, 66.000000)" font-family="Arial-BoldMT, Arial" font-weight="bold">
                <text id="num1" font-size="14" fill="#FFFFFF">
                    <tspan x="0.831054688" y="49">num1</tspan>
                </text>
                <text id="num2" font-size="14" fill="#FFFFFF">
                    <tspan x="84.3310547" y="87">num2</tspan>
                </text>
                <text id="sum" font-size="14" fill="#FFFFFF">
                    <tspan x="488.606934" y="91">sum</tspan>
                </text>
                <text id="2" font-size="20" fill="#000000">
                    <tspan x="37.4384766" y="18">2</tspan>
                </text>
                <text id="10" font-size="20" fill="#000000">
                    <tspan x="106.876953" y="56">10</tspan>
                </text>
                <text id="12" font-size="20" fill="#000000">
                    <tspan x="477.876953" y="56">12</tspan>
                    <tspan x="489" y="103"></tspan>
                </text>
            </g>
        </g>
    </g>
</svg>